<svg width="250" height="250" viewBox="0 0 250 250" fill="none" xmlns="http://www.w3.org/2000/svg">
<rect width="250" height="250" rx="16" fill="#3FFF96"/>
<path d="M87.8571 40C92.6071 40 96.4286 43.8119 96.4286 48.55V62.8H153.571V48.55C153.571 43.8119 157.393 40 162.143 40C166.893 40 170.714 43.8119 170.714 48.55V62.8H182.143C194.75 62.8 205 73.0244 205 85.6V188.2C205 200.776 194.75 211 182.143 211H67.8571C55.25 211 45 200.776 45 188.2V85.6C45 73.0244 55.25 62.8 67.8571 62.8H79.2857V48.55C79.2857 43.8119 83.1071 40 87.8571 40ZM182.143 193.9C185.286 193.9 187.857 191.335 187.857 188.2V165.4H156.429V193.9H182.143ZM187.857 148.3V119.8H156.429V148.3H187.857ZM139.286 148.3V119.8H110.714V148.3H139.286ZM93.5714 148.3V119.8H62.1429V148.3H93.5714ZM62.1429 165.4V188.2C62.1429 191.335 64.7143 193.9 67.8571 193.9H93.5714V165.4H62.1429ZM110.714 165.4V193.9H139.286V165.4H110.714ZM87.8571 79.9H67.8571C64.7143 79.9 62.1429 82.465 62.1429 85.6V102.7H187.857V85.6C187.857 82.465 185.286 79.9 182.143 79.9H87.8571Z" fill="#313131"/>
</svg>
